<svg id="ersLTC7qxna1" xmlns="http://www.w3.org/2000/svg" xmlns:xlink="http://www.w3.org/1999/xlink" viewBox="0 0 1500 1500" shape-rendering="geometricPrecision" text-rendering="geometricPrecision"><style><![CDATA[#ersLTC7qxna26_tk {animation: ersLTC7qxna26_tk__tk 15000ms linear infinite normal forwards}@keyframes ersLTC7qxna26_tk__tk { 0% {transform: translate(722.507483px,717.402235px) skewX(0deg) skewY(0deg)} 7.333333% {transform: translate(722.507483px,717.402235px) skewX(0deg) skewY(0deg);animation-timing-function: cubic-bezier(0.645,0.045,0.355,1)} 9.333333% {transform: translate(722.507483px,717.402235px) skewX(0deg) skewY(-50deg)} 98% {transform: translate(722.507483px,717.402235px) skewX(0deg) skewY(-50deg)} 100% {transform: translate(722.507483px,717.402235px) skewX(0deg) skewY(0deg)}} #ersLTC7qxna26_ts {animation: ersLTC7qxna26_ts__ts 15000ms linear infinite normal forwards}@keyframes ersLTC7qxna26_ts__ts { 0% {transform: scale(-1,1)} 7.333333% {transform: scale(-1,1);animation-timing-function: cubic-bezier(0.645,0.045,0.355,1)} 9.333333% {transform: scale(0,1)} 98% {transform: scale(0,1)} 100% {transform: scale(-1,1)}} #ersLTC7qxna33_ts {animation: ersLTC7qxna33_ts__ts 15000ms linear infinite normal forwards}@keyframes ersLTC7qxna33_ts__ts { 0% {transform: translate(714.728951px,716.547007px) scale(0,1)} 8% {transform: translate(714.728951px,716.547007px) scale(0,1);animation-timing-function: cubic-bezier(0.86,0,0.07,1)} 10% {transform: translate(714.728951px,716.547007px) scale(1,1)} 96.666667% {transform: translate(714.728951px,716.547007px) scale(1,1)} 98.666667% {transform: translate(714.728951px,716.547007px) scale(0,1)} 100% {transform: translate(714.728951px,716.547007px) scale(0,1)}} #ersLTC7qxna47_to {animation: ersLTC7qxna47_to__to 15000ms linear infinite normal forwards}@keyframes ersLTC7qxna47_to__to { 0% {transform: translate(486.192584px,841.126862px)} 0.666667% {transform: translate(486.192584px,841.126862px);animation-timing-function: cubic-bezier(0.86,0,0.07,1)} 4% {transform: translate(480.547578px,835.916088px);animation-timing-function: cubic-bezier(0.86,0,0.07,1)} 7.333333% {transform: translate(491.83759px,842.646672px);animation-timing-function: cubic-bezier(0.86,0,0.07,1)} 12.666667% {transform: translate(486.192584px,841.126862px);animation-timing-function: cubic-bezier(0.86,0,0.07,1)} 28% {transform: translate(488.192584px,842.126862px);animation-timing-function: cubic-bezier(0.86,0,0.07,1)} 40% {transform: translate(486.192584px,841.126862px);animation-timing-function: cubic-bezier(0.86,0,0.07,1)} 43.333333% {transform: translate(480.547578px,835.916088px);animation-timing-function: cubic-bezier(0.86,0,0.07,1)} 46.666667% {transform: translate(491.83759px,842.646672px);animation-timing-function: cubic-bezier(0.86,0,0.07,1)} 52% {transform: translate(486.192584px,841.126862px);animation-timing-function: cubic-bezier(0.86,0,0.07,1)} 67.333333% {transform: translate(488.192584px,842.126862px);animation-timing-function: cubic-bezier(0.86,0,0.07,1)} 71.333333% {transform: translate(486.192584px,841.126862px);animation-timing-function: cubic-bezier(0.86,0,0.07,1)} 74.666667% {transform: translate(480.547578px,835.916088px);animation-timing-function: cubic-bezier(0.86,0,0.07,1)} 78% {transform: translate(491.83759px,842.646672px);animation-timing-function: cubic-bezier(0.86,0,0.07,1)} 83.333333% {transform: translate(486.192584px,841.126862px);animation-timing-function: cubic-bezier(0.86,0,0.07,1)} 95.333333% {transform: translate(488.192584px,842.126862px);animation-timing-function: cubic-bezier(0.86,0,0.07,1)} 100% {transform: translate(486.192584px,841.126862px)}} #ersLTC7qxna47_tr {animation: ersLTC7qxna47_tr__tr 15000ms linear infinite normal forwards}@keyframes ersLTC7qxna47_tr__tr { 0% {transform: rotate(0deg);animation-timing-function: cubic-bezier(0.86,0,0.07,1)} 3.333333% {transform: rotate(-20.60559deg);animation-timing-function: cubic-bezier(0.86,0,0.07,1)} 6.666667% {transform: rotate(22.867274deg);animation-timing-function: cubic-bezier(0.86,0,0.07,1)} 12% {transform: rotate(0deg);animation-timing-function: cubic-bezier(0.86,0,0.07,1)} 27.333333% {transform: rotate(4.299539deg);animation-timing-function: cubic-bezier(0.86,0,0.07,1)} 40% {transform: rotate(0deg);animation-timing-function: cubic-bezier(0.86,0,0.07,1)} 43.333333% {transform: rotate(-20.60559deg);animation-timing-function: cubic-bezier(0.86,0,0.07,1)} 46.666667% {transform: rotate(22.867274deg);animation-timing-function: cubic-bezier(0.86,0,0.07,1)} 52% {transform: rotate(0deg);animation-timing-function: cubic-bezier(0.86,0,0.07,1)} 67.333333% {transform: rotate(4.299539deg);animation-timing-function: cubic-bezier(0.86,0,0.07,1)} 71.333333% {transform: rotate(0deg);animation-timing-function: cubic-bezier(0.86,0,0.07,1)} 74.666667% {transform: rotate(-20.60559deg);animation-timing-function: cubic-bezier(0.86,0,0.07,1)} 78% {transform: rotate(22.867274deg);animation-timing-function: cubic-bezier(0.86,0,0.07,1)} 83.333333% {transform: rotate(0deg);animation-timing-function: cubic-bezier(0.86,0,0.07,1)} 95.333333% {transform: rotate(4.299539deg);animation-timing-function: cubic-bezier(0.86,0,0.07,1)} 100% {transform: rotate(0deg)}} #ersLTC7qxna58_tr {animation: ersLTC7qxna58_tr__tr 15000ms linear infinite normal forwards}@keyframes ersLTC7qxna58_tr__tr { 0% {transform: translate(515.963499px,901.438788px) rotate(-22.522823deg)} 1.333333% {transform: translate(515.963499px,901.438788px) rotate(-22.522823deg);animation-timing-function: cubic-bezier(0.86,0,0.07,1)} 4.666667% {transform: translate(515.963499px,901.438788px) rotate(-30.544051deg);animation-timing-function: cubic-bezier(0.86,0,0.07,1)} 8% {transform: translate(515.963499px,901.438788px) rotate(9.952893deg);animation-timing-function: cubic-bezier(0.86,0,0.07,1)} 13.333333% {transform: translate(515.963499px,901.438788px) rotate(-1.336494deg);animation-timing-function: cubic-bezier(0.86,0,0.07,1)} 27.333333% {transform: translate(515.963499px,901.438788px) rotate(3.58572deg);animation-timing-function: cubic-bezier(0.86,0,0.07,1)} 36.666667% {transform: translate(515.963499px,901.438788px) rotate(-1.336494deg);animation-timing-function: cubic-bezier(0.86,0,0.07,1)} 40% {transform: translate(515.963499px,901.438788px) rotate(-22.522823deg);animation-timing-function: cubic-bezier(0.86,0,0.07,1)} 43.333333% {transform: translate(515.963499px,901.438788px) rotate(-30.544051deg);animation-timing-function: cubic-bezier(0.86,0,0.07,1)} 46.666667% {transform: translate(515.963499px,901.438788px) rotate(9.952893deg);animation-timing-function: cubic-bezier(0.86,0,0.07,1)} 52% {transform: translate(515.963499px,901.438788px) rotate(-1.336494deg);animation-timing-function: cubic-bezier(0.86,0,0.07,1)} 62% {transform: translate(515.963499px,901.438788px) rotate(3.58572deg);animation-timing-function: cubic-bezier(0.86,0,0.07,1)} 68% {transform: translate(515.963499px,901.438788px) rotate(-1.336494deg);animation-timing-function: cubic-bezier(0.86,0,0.07,1)} 71.333333% {transform: translate(515.963499px,901.438788px) rotate(-22.522823deg);animation-timing-function: cubic-bezier(0.86,0,0.07,1)} 74.666667% {transform: translate(515.963499px,901.438788px) rotate(-30.544051deg);animation-timing-function: cubic-bezier(0.86,0,0.07,1)} 78% {transform: translate(515.963499px,901.438788px) rotate(9.952893deg);animation-timing-function: cubic-bezier(0.86,0,0.07,1)} 83.333333% {transform: translate(515.963499px,901.438788px) rotate(-1.336494deg);animation-timing-function: cubic-bezier(0.86,0,0.07,1)} 95.333333% {transform: translate(515.963499px,901.438788px) rotate(3.58572deg);animation-timing-function: cubic-bezier(0.86,0,0.07,1)} 100% {transform: translate(515.963499px,901.438788px) rotate(-22.522823deg)}} #ersLTC7qxna59_tr {animation: ersLTC7qxna59_tr__tr 15000ms linear infinite normal forwards}@keyframes ersLTC7qxna59_tr__tr { 0% {transform: translate(535.392102px,866.767504px) rotate(-57.664488deg)} 2% {transform: translate(535.392102px,866.767504px) rotate(-57.664488deg);animation-timing-function: cubic-bezier(0.86,0,0.07,1)} 5.333333% {transform: translate(535.392102px,866.767504px) rotate(-62.132565deg);animation-timing-function: cubic-bezier(0.86,0,0.07,1)} 8.666667% {transform: translate(535.392102px,866.767504px) rotate(-1.956656deg);animation-timing-function: cubic-bezier(0.86,0,0.07,1)} 14% {transform: translate(535.392102px,866.767504px) rotate(-11.489954deg);animation-timing-function: cubic-bezier(0.86,0,0.07,1)} 25.333333% {transform: translate(535.392102px,866.767504px) rotate(-4.92945deg);animation-timing-function: cubic-bezier(0.86,0,0.07,1)} 35.333333% {transform: translate(535.392102px,866.767504px) rotate(-11.489954deg);animation-timing-function: cubic-bezier(0.86,0,0.07,1)} 40% {transform: translate(535.392102px,866.767504px) rotate(-57.664488deg);animation-timing-function: cubic-bezier(0.86,0,0.07,1)} 43.333333% {transform: translate(535.392102px,866.767504px) rotate(-62.132565deg);animation-timing-function: cubic-bezier(0.86,0,0.07,1)} 46.666667% {transform: translate(535.392102px,866.767504px) rotate(-1.956656deg);animation-timing-function: cubic-bezier(0.86,0,0.07,1)} 52% {transform: translate(535.392102px,866.767504px) rotate(-11.489954deg);animation-timing-function: cubic-bezier(0.86,0,0.07,1)} 59.333333% {transform: translate(535.392102px,866.767504px) rotate(-4.92945deg);animation-timing-function: cubic-bezier(0.86,0,0.07,1)} 66% {transform: translate(535.392102px,866.767504px) rotate(-11.489954deg);animation-timing-function: cubic-bezier(0.86,0,0.07,1)} 70.666667% {transform: translate(535.392102px,866.767504px) rotate(-57.664488deg);animation-timing-function: cubic-bezier(0.86,0,0.07,1)} 71.333333% {transform: translate(535.392102px,866.767504px) rotate(-57.664488deg);animation-timing-function: cubic-bezier(0.86,0,0.07,1)} 74.666667% {transform: translate(535.392102px,866.767504px) rotate(-62.132565deg);animation-timing-function: cubic-bezier(0.86,0,0.07,1)} 78% {transform: translate(535.392102px,866.767504px) rotate(-1.956656deg);animation-timing-function: cubic-bezier(0.86,0,0.07,1)} 83.333333% {transform: translate(535.392102px,866.767504px) rotate(-11.489954deg);animation-timing-function: cubic-bezier(0.86,0,0.07,1)} 94.666667% {transform: translate(535.392102px,866.767504px) rotate(-4.92945deg);animation-timing-function: cubic-bezier(0.86,0,0.07,1)} 100% {transform: translate(535.392102px,866.767504px) rotate(-57.664488deg)}} #ersLTC7qxna69_ts {animation: ersLTC7qxna69_ts__ts 15000ms linear infinite normal forwards}@keyframes ersLTC7qxna69_ts__ts { 0% {transform: translate(548.300018px,824.000031px) scale(0,0)} 4% {transform: translate(548.300018px,824.000031px) scale(0,0);animation-timing-function: cubic-bezier(0.645,0.045,0.355,1)} 7.333333% {transform: translate(548.300018px,824.000031px) scale(1.5,1.5);animation-timing-function: cubic-bezier(0.645,0.045,0.355,1)} 10.666667% {transform: translate(548.300018px,824.000031px) scale(1,1);animation-timing-function: cubic-bezier(0.645,0.045,0.355,1)} 42% {transform: translate(548.300018px,824.000031px) scale(0,0);animation-timing-function: cubic-bezier(0.645,0.045,0.355,1)} 45.333333% {transform: translate(548.300018px,824.000031px) scale(1.5,1.5);animation-timing-function: cubic-bezier(0.645,0.045,0.355,1)} 48.666667% {transform: translate(548.300018px,824.000031px) scale(1,1);animation-timing-function: cubic-bezier(0.645,0.045,0.355,1)} 68% {transform: translate(548.300018px,824.000031px) scale(0,0);animation-timing-function: cubic-bezier(0.645,0.045,0.355,1)} 100% {transform: translate(548.300018px,824.000031px) scale(0,0)}} #ersLTC7qxna83_tr {animation: ersLTC7qxna83_tr__tr 15000ms linear infinite normal forwards}@keyframes ersLTC7qxna83_tr__tr { 0% {transform: translate(696px,844.050018px) rotate(-360deg)} 8% {transform: translate(696px,844.050018px) rotate(-360deg);animation-timing-function: cubic-bezier(0.645,0.045,0.355,1)} 14.666667% {transform: translate(696px,844.050018px) rotate(360deg)} 100% {transform: translate(696px,844.050018px) rotate(360deg)}} #ersLTC7qxna83_ts {animation: ersLTC7qxna83_ts__ts 15000ms linear infinite normal forwards}@keyframes ersLTC7qxna83_ts__ts { 0% {transform: scale(1,1)} 14.666667% {transform: scale(1,1);animation-timing-function: cubic-bezier(0.86,0,0.07,1)} 20.666667% {transform: scale(1.2,1.2);animation-timing-function: cubic-bezier(0.86,0,0.07,1)} 26.666667% {transform: scale(1,1);animation-timing-function: cubic-bezier(0.86,0,0.07,1)} 32.666667% {transform: scale(1.2,1.2);animation-timing-function: cubic-bezier(0.86,0,0.07,1)} 38.666667% {transform: scale(1,1)} 100% {transform: scale(1,1)}} #ersLTC7qxna101_ts {animation: ersLTC7qxna101_ts__ts 15000ms linear infinite normal forwards}@keyframes ersLTC7qxna101_ts__ts { 0% {transform: translate(696px,844.050018px) scale(0,0)} 40% {transform: translate(696px,844.050018px) scale(0,0);animation-timing-function: cubic-bezier(0.68,-0.55,0.265,1.55)} 46.666667% {transform: translate(696px,844.050018px) scale(1,1)} 66% {transform: translate(696px,844.050018px) scale(1,1);animation-timing-function: cubic-bezier(0.645,0.045,0.355,1)} 69.333333% {transform: translate(696px,844.050018px) scale(0,0)} 100% {transform: translate(696px,844.050018px) scale(0,0)}} #ersLTC7qxna101 {animation: ersLTC7qxna101_c_o 15000ms linear infinite normal forwards}@keyframes ersLTC7qxna101_c_o { 0% {opacity: 0} 43.333333% {opacity: 0} 45.333333% {opacity: 1} 100% {opacity: 1}} #ersLTC7qxna140_tr {animation: ersLTC7qxna140_tr__tr 15000ms linear infinite normal forwards}@keyframes ersLTC7qxna140_tr__tr { 0% {transform: translate(696px,844.050018px) rotate(-360deg)} 40% {transform: translate(696px,844.050018px) rotate(-360deg);animation-timing-function: cubic-bezier(0.645,0.045,0.355,1)} 46.666667% {transform: translate(696px,844.050018px) rotate(360deg)} 100% {transform: translate(696px,844.050018px) rotate(360deg)}} #ersLTC7qxna140_ts {animation: ersLTC7qxna140_ts__ts 15000ms linear infinite normal forwards}@keyframes ersLTC7qxna140_ts__ts { 0% {transform: scale(1,1)} 46.666667% {transform: scale(1,1);animation-timing-function: cubic-bezier(0.86,0,0.07,1)} 52.666667% {transform: scale(1.2,1.2);animation-timing-function: cubic-bezier(0.86,0,0.07,1)} 58.666667% {transform: scale(1,1);animation-timing-function: cubic-bezier(0.86,0,0.07,1)} 64.666667% {transform: scale(1.2,1.2);animation-timing-function: cubic-bezier(0.86,0,0.07,1)} 70.666667% {transform: scale(1,1)} 100% {transform: scale(1,1)}} #ersLTC7qxna158_ts {animation: ersLTC7qxna158_ts__ts 15000ms linear infinite normal forwards}@keyframes ersLTC7qxna158_ts__ts { 0% {transform: translate(696px,844.050018px) scale(0,0)} 6.666667% {transform: translate(696px,844.050018px) scale(0,0);animation-timing-function: cubic-bezier(0.68,-0.55,0.265,1.55)} 13.333333% {transform: translate(696px,844.050018px) scale(1,1)} 32.666667% {transform: translate(696px,844.050018px) scale(1,1);animation-timing-function: cubic-bezier(0.645,0.045,0.355,1)} 36% {transform: translate(696px,844.050018px) scale(0,0)} 100% {transform: translate(696px,844.050018px) scale(0,0)}} #ersLTC7qxna158 {animation: ersLTC7qxna158_c_o 15000ms linear infinite normal forwards}@keyframes ersLTC7qxna158_c_o { 0% {opacity: 0} 10% {opacity: 0} 12% {opacity: 1} 100% {opacity: 1}} #ersLTC7qxna231_tr {animation: ersLTC7qxna231_tr__tr 15000ms linear infinite normal forwards}@keyframes ersLTC7qxna231_tr__tr { 0% {transform: translate(696px,844.050018px) rotate(-360deg)} 6.666667% {transform: translate(696px,844.050018px) rotate(-360deg);animation-timing-function: cubic-bezier(0.645,0.045,0.355,1)} 13.333333% {transform: translate(696px,844.050018px) rotate(360deg)} 100% {transform: translate(696px,844.050018px) rotate(360deg)}} #ersLTC7qxna231_ts {animation: ersLTC7qxna231_ts__ts 15000ms linear infinite normal forwards}@keyframes ersLTC7qxna231_ts__ts { 0% {transform: scale(1,1)} 13.333333% {transform: scale(1,1);animation-timing-function: cubic-bezier(0.86,0,0.07,1)} 19.333333% {transform: scale(1.2,1.2);animation-timing-function: cubic-bezier(0.86,0,0.07,1)} 25.333333% {transform: scale(1,1);animation-timing-function: cubic-bezier(0.86,0,0.07,1)} 31.333333% {transform: scale(1.2,1.2);animation-timing-function: cubic-bezier(0.86,0,0.07,1)} 37.333333% {transform: scale(1,1)} 100% {transform: scale(1,1)}} #ersLTC7qxna249_ts {animation: ersLTC7qxna249_ts__ts 15000ms linear infinite normal forwards}@keyframes ersLTC7qxna249_ts__ts { 0% {transform: translate(696px,844.050018px) scale(0,0)} 72.666667% {transform: translate(696px,844.050018px) scale(0,0);animation-timing-function: cubic-bezier(0.68,-0.55,0.265,1.55)} 79.333333% {transform: translate(696px,844.050018px) scale(1,1)} 96% {transform: translate(696px,844.050018px) scale(1,1);animation-timing-function: cubic-bezier(0.645,0.045,0.355,1)} 99.333333% {transform: translate(696px,844.050018px) scale(0,0)} 100% {transform: translate(696px,844.050018px) scale(0,0)}} #ersLTC7qxna249 {animation: ersLTC7qxna249_c_o 15000ms linear infinite normal forwards}@keyframes ersLTC7qxna249_c_o { 0% {opacity: 0} 76% {opacity: 0} 78% {opacity: 1} 100% {opacity: 1}} #ersLTC7qxna288_tr {animation: ersLTC7qxna288_tr__tr 15000ms linear infinite normal forwards}@keyframes ersLTC7qxna288_tr__tr { 0% {transform: translate(696px,844.050018px) rotate(-360deg)} 72.666667% {transform: translate(696px,844.050018px) rotate(-360deg);animation-timing-function: cubic-bezier(0.645,0.045,0.355,1)} 79.333333% {transform: translate(696px,844.050018px) rotate(360deg)} 100% {transform: translate(696px,844.050018px) rotate(360deg)}} #ersLTC7qxna288_ts {animation: ersLTC7qxna288_ts__ts 15000ms linear infinite normal forwards}@keyframes ersLTC7qxna288_ts__ts { 0% {transform: scale(1,1)} 79.333333% {transform: scale(1,1);animation-timing-function: cubic-bezier(0.86,0,0.07,1)} 85.333333% {transform: scale(1.2,1.2);animation-timing-function: cubic-bezier(0.86,0,0.07,1)} 88.666667% {transform: scale(1,1);animation-timing-function: cubic-bezier(0.86,0,0.07,1)} 94.666667% {transform: scale(1.2,1.2);animation-timing-function: cubic-bezier(0.86,0,0.07,1)} 100% {transform: scale(1.022222,1.022222)}}]]></style><g><g><polygon points="782.6,996.4 804.9,996.4 1054.6,746.6 923.5,746.6 714,933.7" opacity="0.2"/><g><rect width="196.7" height="224.4" rx="0" ry="0" transform="translate(531.8 716.8)" fill="#3b3b3b" stroke="#000" stroke-width="1.3167" stroke-miterlimit="10"/><polygon points="728.4,716.8 923.1,522.2 726.4,522.2 531.8,716.8" fill="#b3b3b3" stroke="#000" stroke-width="1.3167" stroke-miterlimit="10"/><polygon points="728.4,941.2 923.5,746.2 923.5,522.2 728.4,716.8" fill="#949494" stroke="#000" stroke-width="1.3167" stroke-miterlimit="10"/><polygon points="903.9,556.6 903.9,739.1 903.9,749.2 913.9,739.1 913.9,546.6" fill="#3b3b3b" stroke="#000" stroke-width="1.3167" stroke-miterlimit="10"/><polygon points="883.1,577.4 883.1,759.9 883.1,770 893.1,759.9 893.1,567.4" fill="#3b3b3b" stroke="#000" stroke-width="1.3167" stroke-miterlimit="10"/><polygon points="862.3,598.3 862.3,780.8 862.3,790.8 872.3,780.8 872.3,588.2" fill="#3b3b3b" stroke="#000" stroke-width="1.3167" stroke-miterlimit="10"/><polygon points="841.5,619.1 841.5,801.6 841.5,811.6 851.5,801.6 851.5,609" fill="#3b3b3b" stroke="#000" stroke-width="1.3167" stroke-miterlimit="10"/><polygon points="820.7,639.9 820.7,822.4 820.7,832.4 830.7,822.4 830.7,629.8" fill="#3b3b3b" stroke="#000" stroke-width="1.3167" stroke-miterlimit="10"/><polygon points="799.8,660.7 799.8,843.2 799.8,853.2 809.9,843.2 809.9,650.7" fill="#3b3b3b" stroke="#000" stroke-width="1.3167" stroke-miterlimit="10"/><polygon points="779,681.5 779,864 779,874 789.1,864 789.1,671.5" fill="#3b3b3b" stroke="#000" stroke-width="1.3167" stroke-miterlimit="10"/><polygon points="758.2,702.3 758.2,884.8 758.2,894.8 768.2,884.8 768.2,692.3" fill="#3b3b3b" stroke="#000" stroke-width="1.3167" stroke-miterlimit="10"/><polygon points="737.4,723.1 737.4,905.6 737.4,915.6 747.4,905.6 747.4,713.1" fill="#3b3b3b" stroke="#000" stroke-width="1.3167" stroke-miterlimit="10"/></g><g><g><rect width="98.3" height="224.4" rx="0" ry="0" transform="translate(531.8 716.8)" fill="#b3b3b3" stroke="#000" stroke-width="1.3167" stroke-miterlimit="10"/><polygon points="630.1,941.2 638.7,932.6 638.7,716.8 630.1,716.8" fill="#1f1f1f" stroke="#000" stroke-width="1.3167" stroke-linecap="round" stroke-linejoin="round" stroke-miterlimit="10"/></g><g><rect width="9.1" height="205.7" rx="0" ry="0" transform="translate(603.8 727)" fill="#3b3b3b" stroke="#000" stroke-width="1.3167" stroke-miterlimit="10"/><rect width="40.6" height="6.9" rx="0" ry="0" transform="translate(584.4 841.9)" opacity="0.4"/><rect width="40.6" height="6.9" rx="0" ry="0" transform="translate(578.1 831.1)" fill="#3b3b3b" stroke="#000" stroke-width="1.3167" stroke-miterlimit="10"/></g></g><g id="ersLTC7qxna26_tk" transform="translate(722.507483,717.402235) skewX(0) skewY(0)"><g id="ersLTC7qxna26_ts" transform="scale(-1,1)"><g transform="translate(-531.764503,-717.402235)"><g><rect width="98.3" height="224.4" rx="0" ry="0" transform="translate(531.8 716.8)" fill="#b3b3b3" stroke="#000" stroke-width="1.3167" stroke-miterlimit="10"/></g><g><rect width="9.1" height="205.7" rx="0" ry="0" transform="translate(603.8 727)" fill="#3b3b3b" stroke="#000" stroke-width="1.3167" stroke-miterlimit="10"/><rect width="40.6" height="6.9" rx="0" ry="0" transform="translate(584.4 841.9)" opacity="0.4"/><rect width="40.6" height="6.9" rx="0" ry="0" transform="translate(578.1 831.1)" fill="#3b3b3b" stroke="#000" stroke-width="1.3167" stroke-miterlimit="10"/></g></g></g></g><g id="ersLTC7qxna33_ts" transform="translate(714.728951,716.547007) scale(0,1)"><g transform="translate(-714.728951,-716.547007)"><polygon points="714,716.8 714,941.2 768.2,995.4 768.2,771" fill="#b3b3b3" stroke="#000" stroke-width="1.3167" stroke-miterlimit="10"/><polygon points="714,716.8 728.4,716.8 782.6,771 768.2,771" fill="#b3b3b3" stroke="#000" stroke-width="1.3167" stroke-miterlimit="10"/><rect width="14.5" height="224.4" rx="0" ry="0" transform="translate(768.2 771)" fill="#3b3b3b" stroke="#000" stroke-width="1.3167" stroke-miterlimit="10"/></g></g><polygon points="730.1,532.9 556.3,706.7 720,706.7 893.8,532.9" fill="#828282" stroke="#000" stroke-width="1.3167" stroke-miterlimit="10"/><path d="M512.2,713.1c0,0,177.4-175.9,193.5-193.5c16.1-17.5,43.8-14.7,43.8-14.7h191.1" fill="none" stroke="#e92719" stroke-width="2" stroke-miterlimit="10"/></g><g><g><g><polyline points="476.9,936.5 476.9,994.7 493.2,994.7 493.2,919.5 476.9,919.5" fill="#b3b3b3" stroke="#000" stroke-width="1.3167" stroke-miterlimit="10"/><polyline points="476.9,931.8 476.9,994.7 447.9,994.7 447.9,919.5 493.9,919.5" fill="#b3b3b3" stroke="#000" stroke-width="1.3167" stroke-miterlimit="10"/><path d="M447.2,995.4c0,0,8.6-12.5,13.2-13.2c6.8-1,24,13.2,24,13.2h-37.2Z"/><path d="M479.7,995.4c0,0,8.6-12.5,13.2-13.2c6.8-1,24,13.2,24,13.2h-37.2Z"/></g><polygon points="465.9,851.7 493.2,903.9 493.2,846.3 471.7,845.8" opacity="0.5"/></g><g id="ersLTC7qxna47_to" transform="translate(486.192584,841.126862)"><g id="ersLTC7qxna47_tr" transform="rotate(0)"><g transform="translate(-486.192584,-841.126862)"><g><path d="M486,831.8c0,0-19.3-12.6-19.3-19.6c0-6.9,0-27.1,0-27.1h38.5c0,0,0,24.3,0,27.1c0,6.9-19.2,19.6-19.2,19.6Z" fill="#d1d1d1" stroke="#000" stroke-width="1.1458" stroke-miterlimit="10"/></g><path d="M500,787c0,7,0,16.9,0,18.6c0,6.6-10.5,17.2-17.1,17.2-4.5,0-10.2-4-15.7-9.6.8,6.6,18.7,18.1,18.7,18.1s18.8-12,18.8-18.6c0-2.7,0-25.7,0-25.7h-4.7Z" opacity="0.5" fill="#a6a6a6"/><path d="M489.5,764.5c-12.3,0-16.5,4.2-16.5,4.2s3.7-.6,3.9,2.6-5.1,3.5-10.2,2.6c-5.1-1-10.8,7.1-7.5,16s7.5,11.7,7.5,17.4c0,.4.1.8.2,1.1.7-4,3.2-7,6.1-7c3.5,0,6.3,4.1,6.3,9.2c0-5.7,5.7-10,13.5-14.3c7.8-4.2,12.3-7.2,12.3-13.5.1-6.4-3.2-18.3-15.6-18.3Z" fill="#1f1f1f" stroke="#000" stroke-width="1.3167" stroke-linecap="round" stroke-linejoin="round" stroke-miterlimit="10"/><path d="M497.2,801.7c0,6.4,3.4,9,3.4,10.6.1,1.7-2.8,1.7-3.9.9" fill="#d1d1d1" stroke="#000" stroke-width="1.1458" stroke-linecap="round" stroke-linejoin="round" stroke-miterlimit="10"/></g></g></g><path d="M448,881c0-7.5-1.9-14.3,8-26.2s12.9-24.7,12.9-24.7s16,15.5,25.1,15.5v53.8v20.3h-46.2L448,881Z" fill="#e92719" stroke="#000" stroke-width="1.3167" stroke-miterlimit="10"/><path d="M468.8,829.9L457.2,838l41.7,32.2-3.3-24.8c.1,0-21.3-10-26.8-15.5Z" fill="#e92719" stroke="#000" stroke-width="1.3167" stroke-miterlimit="10"/><g transform="matrix(.999911-.013313 0.013313 0.999911-11.435364 6.08587)"><g><path d="M512.6,881.3L494,865.7l-29.8-22.3c0,0-3.5,5.3-6.9,10.1-3.4,4.7-5.9,8.6-5.9,8.6l49.1,41.2c0,0,2.7,2.3,7.2,2.4c3.50267.174649,4.788962-1.142979,8.147369-4.115384l1.160183-3.614499c-4.124735-3.261508.555903-11.587979-4.407552-16.670117Z" fill="#e92719" stroke="#000" stroke-width="1.3167" stroke-miterlimit="10"/><g id="ersLTC7qxna58_tr" transform="translate(515.963499,901.438788) rotate(-22.522823)"><g transform="translate(-515.13767,-901.008619)"><g id="ersLTC7qxna59_tr" transform="translate(535.392102,866.767504) rotate(-57.664488)"><g transform="translate(-536.431344,-865.05871)"><g><g><g><rect width="5.9" height="33.4" rx="0" ry="0" transform="translate(545.4 843.1)" fill="#e92719" stroke="#000" stroke-width="1.3167" stroke-miterlimit="10"/></g><g><path d="M547.8,804.6c-11.4,0-20.6,9.2-20.6,20.6s9.2,20.6,20.6,20.6s20.6-9.2,20.6-20.6-9.2-20.6-20.6-20.6Zm0,36.5c-8.8,0-15.8-7.1-15.8-15.8s7.1-15.8,15.8-15.8s15.8,7.1,15.8,15.8-7,15.8-15.8,15.8Z" fill="#e92719" stroke="#000" stroke-width="1.3167" stroke-miterlimit="10"/></g></g><g><path d="M541.4,835.4c-3.7-2.2-5.8-6-5.8-10.3c0-6.6,5.4-12,12-12c2.9,0,5.6,1,7.8,2.9l-.7.9c-1.7-1-3.6-1.5-5.5-1.5-6,0-10.8,4.8-10.8,10.8c0,3.2,1.4,6.1,3.8,8.2l-.8,1Z" fill="#fff"/><path d="M547.6,813.7c2.8,0,5.4,1,7.4,2.7-1.7-1-3.7-1.6-5.8-1.6-6.3,0-11.4,5.1-11.4,11.4c0,3.5,1.5,6.6,4,8.6-3.3-2-5.6-5.6-5.6-9.8c0-6.2,5.1-11.3,11.4-11.3m0-1.1c-6.9,0-12.6,5.6-12.6,12.6c0,4.5,2.3,8.5,6.1,10.8l1.4-1.9c-2.3-1.9-3.6-4.8-3.6-7.8c0-5.6,4.6-10.2,10.2-10.2c1.8,0,3.6.5,5.2,1.5l1.4-1.9c-2.2-2.1-5.1-3.1-8.1-3.1v0Z"/></g><g id="ersLTC7qxna69_ts" transform="translate(548.300018,824.000031) scale(0,0)"><circle r="31.1" transform="translate(-0.000018,-0.000031)" fill="none" stroke="#e92719" stroke-width="2" stroke-miterlimit="10"/></g></g><g><path d="M533.2,859.2l12.7-7c0,0,7.8-4.3,9.8-2.8c3.3,2.5,2.8,12.5.2,15.8-1.4,1.9-9.4,3.5-9.4,3.5l-8.7,1.6L530,864l3.2-4.8Z" fill="#d1d1d1" stroke="#000" stroke-width="1.3167" stroke-miterlimit="10"/><polygon points="540.8,855 546.6,868.8 539.9,870.2 532.7,859.9" opacity="0.5"/></g></g></g><polyline points="515,901.1 545.1,870.4 532.2,857.5 504.2,885.5" fill="#e92719" stroke="#000" stroke-width="1.3167" stroke-miterlimit="10"/></g></g></g></g></g><g id="ersLTC7qxna101_ts" transform="translate(696,844.050018) scale(0,0)"><g id="ersLTC7qxna101" transform="translate(-696,-844.050018)" opacity="0"><g><rect width="67.2" height="67.2" rx="0" ry="0" transform="matrix(.7071 0.7071-.7071 0.7071 696.612397 810.618819)" opacity="0.2"/><rect width="67.2" height="67.2" rx="0" ry="0" transform="matrix(.7071 0.7071-.7071 0.7071 696.014173 798.182523)" fill="#e92719" stroke="#000" stroke-width="1.3167" stroke-miterlimit="10"/><g><rect width="50.3" height="50.3" rx="0" ry="0" transform="matrix(.7071 0.7071-.7071 0.7071 696.012164 813.302227)" opacity="0.4"/><rect width="50.3" height="50.3" rx="0" ry="0" transform="matrix(.7071 0.7071-.7071 0.7071 696.050533 808.617858)" fill="#e92719" stroke="#000" stroke-width="1.3167" stroke-miterlimit="10"/><g><path d="M692.6,860.1c0-2,1.4-3.5,3.4-3.5s3.4,1.5,3.4,3.5-1.3,3.5-3.4,3.5c-2,0-3.4-1.5-3.4-3.5Zm1.5-8.1l-.8-27.3h5.5L698,852h-3.9Z"/></g></g></g><g transform="matrix(.250125 0 0 0.250125 503.071185 784.695917)"><g><rect width="304.8" height="304.8" rx="0" ry="0" transform="matrix(.7071-.7071 0.7071 0.7071 552.173328 233.414625)" fill="#cd103c"/><path d="M767.7,452.5l-219-219.1l219.1-219l219.1,219L767.7,452.5Zm-212-219.1L767.8,445.5L979.9,233.4L767.7,21.3l-212,212.1Z"/></g><g><rect width="256.6" height="256.6" rx="0" ry="0" transform="matrix(.7071-.7071 0.7071 0.7071 586.255534 233.414625)" fill="#cd103c"/><path d="M767.7,416.5L584.6,233.4L767.7,50.3L950.8,233.4L767.7,416.5ZM587.9,233.4L767.7,413.2L947.5,233.4L767.7,53.6L587.9,233.4Z" fill="#fff"/></g><g><path d="M668.4,253.9h-6.5v8.4h4.4v4.9h-4.4v14h-4.7v-32.2c0,0,.5,0,11.2,0v4.9Z" fill="#eaf8f5"/><path d="M670.3,249.1h4.7v27.8h6.3v4.4h-11v-32.2Z" fill="#eaf8f5"/><path d="M682.4,281.2l4.9-32.2h5.8l4.9,32.2h-4.6l-.9-6.6h-4.6l-.9,6.6h-4.6Zm8-21.7l-.1-.8h-.3l-.1.8-1.4,10.2h3.2l-1.3-10.2Z" fill="#eaf8f5"/><path d="M707.9,281.2l-3-20.2-.2-1.4h-.3v1.4v20.2h-4.4v-32.2h5.8l2.8,14.7.2,1.7h.1l.2-1.7l2.8-14.7h5.8v32.2h-4.4v-20.2-1.4h-.3l-.2,1.4-3,20.2h-1.9Z" fill="#eaf8f5"/><path d="M729.1,281.2l-3-20.2-.2-1.4h-.3v1.4v20.2h-4.4v-32.2h5.8l2.8,14.7.2,1.7h.1l.2-1.7l2.8-14.7h5.8v32.2h-4.4v-20.2-1.4h-.3L734,261l-3,20.2h-1.9Z" fill="#eaf8f5"/><path d="M741.1,281.2L746,249h5.8l4.9,32.2h-4.7l-.9-6.6h-4.6l-.9,6.6h-4.5Zm8-21.7l-.1-.8h-.3l-.1.8-1.4,10.2h3.2l-1.3-10.2Z" fill="#eaf8f5"/><path d="M758.8,281.2v-32.2c0,0,2.4,0,4.2,0c5.6,0,8.6,2.1,8.6,8.5c0,3-.7,4.7-2.9,6.6c0,0,3.3,1.5,3.3,7.9c0,4.7-1.7,8.9-7.3,9.1h-5.9Zm4.7-27.4v8.6c.9,0,3.5.1,3.5-4.3c0-4.5-2.6-4.3-3.5-4.3Zm0,12.9v9.9c.9,0,3.5.4,3.5-4.9c0-5.4-2.6-5-3.5-5Z" fill="#eaf8f5"/><path d="M774.7,249.1h4.7v27.8h6.3v4.4h-11v-32.2Z" fill="#eaf8f5"/><path d="M787.7,249.1h10.8v4.9h-6.1v8.4h4.4v5.2h-4.4v8.8h6.1v4.9h-10.8v-32.2Z" fill="#eaf8f5"/><path d="M807.8,249.1h4.7v27.8h6.3v4.4h-11v-32.2Z" fill="#eaf8f5"/><path d="M820.8,249.1h4.7v32.2h-4.7v-32.2Z" fill="#eaf8f5"/><path d="M840.3,278.5c.4.5,1,1,1.9,1.1v4c-2.7,0-4.1-1.1-4.9-2.5-.7.2-1.4.4-2.4.4-6.3,0-6.3-7-6.3-7v-18.9c0,0,0-7,6.3-7s6.3,7,6.3,7v18.9c.1.1.1,2.1-.9,4ZM835,253.3c-1.7,0-1.6,2.4-1.6,2.4v18.9c0,0-.1,2.4,1.6,2.4s1.6-2.4,1.6-2.4v-18.9c0,0,0-2.4-1.6-2.4Z" fill="#eaf8f5"/><path d="M857.1,249.1v25.6c0,0,0,7-6.3,7s-6.3-7-6.3-7v-25.6h4.7v25.6c0,0-.1,2.4,1.6,2.4s1.6-2.4,1.6-2.4v-25.6h4.7Z" fill="#eaf8f5"/><path d="M860.6,249.1h4.7v32.2h-4.7v-32.2Z" fill="#eaf8f5"/><path d="M872.5,281.2h-3.7v-32.2h3.7c8.8,0,9.4,3.5,9.4,16.1.1,12.6-.6,16.1-9.4,16.1Zm1-4.7c3.3,0,3.5-.8,3.5-11.4c0-10.5-.2-11.3-3.5-11.3v22.7Z" fill="#eaf8f5"/></g><g><g><path d="M761,219.3c0,0-30.5-5.1-36.2-30.7s-9.7-32.4-9.7-32.4s12.6,2.4,15,9.7c0,0,8.9-10.5,2.8-34.8c0,0,10.5,2.8,13.4,14.6c0,0,9.3-27.6.4-42.9c0,0,15.4,8.5,18.2,18.6c0,0,4.5-7.7,0-18.6s3.6-29.6,3.6-29.6.4,15.8,6.1,25.1s14.2,24.3,6.9,42.1c0,0,10.9-7.7,13.8-26.3c0,0,6.9,22.3,2.4,45c0,0,13.8-2.4,17.8-23.5c0,0,6.5,15.8-5.3,40.5c0,0,8.5-2.8,13.4-11.7c0,0-3.6,45.1-44.6,55c0,0,18.8-12.4,15.8-36.9c0,0-8.9,12.8-16,12.2c0,0,7.7-9.7,6.5-18.4c0,0-8.7,9.3-12,8.5c0,0-1.2-4.1,2-9.9c3.2-5.9,5.7-16.4-.2-22.7s-5.9-12.8-5.9-14.6c0,0-2.2,15.8,1.2,22.5s0,12.4-1.2,14.2-10.3-7.1-9.9-16.6c0,0-6.3,19.9.8,30.4c0,0-11.1-7.1-13-17c0,0-2.8,12.2,2.6,20.3c0,0-8.1,2.6-12.2-4.9.3-.3.5,23.9,23.5,32.8Z" fill="#fff"/></g><g><rect width="88.1" height="9.3" rx="0" ry="0" transform="translate(725.4 224)" fill="#fff"/></g></g><g><path d="M758.1,377.7c1.5.8,4.8,2.2,8.2,2.2c4.3,0,6.4-2.1,6.4-4.7c0-3.5-3.5-5-7.1-5h-3.4v-5.9h3.2c2.8-.1,6.3-1.1,6.3-4.1c0-2.1-1.7-3.7-5.2-3.7-2.9,0-5.9,1.2-7.4,2.1l-1.7-6c2.1-1.4,6.3-2.7,10.9-2.7c7.5,0,11.7,3.9,11.7,8.8c0,3.7-2.1,6.7-6.4,8.2v.1c4.2.8,7.6,4,7.6,8.5c0,6.2-5.5,10.8-14.4,10.8-4.5,0-8.4-1.2-10.4-2.5l1.7-6.1Z" fill="#e8f6f1"/></g></g><g id="ersLTC7qxna140_tr" transform="translate(696,844.050018) rotate(-360)"><g id="ersLTC7qxna140_ts" transform="scale(1,1)"><g transform="translate(-696,-844.050018)"><circle r="88" transform="translate(696 840.7)" fill="none" stroke="#e92719" stroke-width="2" stroke-miterlimit="10"/><g><polygon points="604.8,843.4 632.2,845.4 604.8,847.4" fill="#e92719"/></g><g><polygon points="632,779.1 650,800 629.2,781.9" fill="#e92719"/></g><g><polygon points="696.8,752.9 694.8,780.4 692.8,752.9" fill="#e92719"/></g><g><polygon points="761.1,780.2 740.2,798.2 758.2,777.4" fill="#e92719"/></g><g><polygon points="787.2,844.9 759.7,842.9 787.2,840.9" fill="#e92719"/></g><g><polygon points="760,909.2 741.9,888.4 762.8,906.4" fill="#e92719"/></g><g><polygon points="695.2,935.4 697.2,907.9 699.2,935.4" fill="#e92719"/></g><g><polygon points="630.9,908.1 651.8,890.1 633.8,911" fill="#e92719"/></g></g></g></g></g></g><g id="ersLTC7qxna158_ts" transform="translate(696,844.050018) scale(0,0)"><g id="ersLTC7qxna158" transform="translate(-696,-844.050018)" opacity="0"><g><rect width="67.2" height="67.2" rx="0" ry="0" transform="matrix(.7071 0.7071-.7071 0.7071 696.612397 810.618819)" opacity="0.2"/><rect width="67.2" height="67.2" rx="0" ry="0" transform="matrix(.7071 0.7071-.7071 0.7071 696.014173 798.182523)" fill="#e92719" stroke="#000" stroke-width="1.3167" stroke-miterlimit="10"/><g><rect width="50.3" height="50.3" rx="0" ry="0" transform="matrix(.7071 0.7071-.7071 0.7071 696.012164 813.302227)" opacity="0.4"/><rect width="50.3" height="50.3" rx="0" ry="0" transform="matrix(.7071 0.7071-.7071 0.7071 696.050533 808.617858)" fill="#e92719" stroke="#000" stroke-width="1.3167" stroke-miterlimit="10"/><g><path d="M692.6,860.1c0-2,1.4-3.5,3.4-3.5s3.4,1.5,3.4,3.5-1.3,3.5-3.4,3.5c-2,0-3.4-1.5-3.4-3.5Zm1.5-8.1l-.8-27.3h5.5L698,852h-3.9Z"/></g></g></g><g transform="matrix(.24395 0 0 0.24395 640.8969 788.45627)"><g><g><rect width="304.8" height="304.8" rx="0" ry="0" transform="matrix(.7071-.7071 0.7071 0.7071 19.392003 233.44635)" fill="#4aae34"/><path d="M235,452.5L15.9,233.4L235,14.4l219.1,219L235,452.5ZM22.9,233.4L235,445.5L447,233.4L235,21.3L22.9,233.4Z"/></g><g><path d="M252.9,123.1l38.2-10.5c0,0,3.5-.9.9-10.1-2.5-9.2-6-8.2-6-8.2l-38.2,10.5c-4.5-9.3-9.1-8-9.1-8l-93.9,25.8c0,0-7,1.9-1.8,20.9s12.2,17,12.2,17l93.9-25.8c0-.1,4.6-1.3,3.8-11.6Z"/><path d="M154.6,160.8c-.8,0-2.1-.2-3.8-1.5-3.2-2.5-6-7.8-8.2-15.7s-2.5-13.9-1-17.7c1.1-2.9,3-3.5,3-3.5l93.9-25.8c.2-.1,4.8-1.2,9.3,7.9l38-10.4c.2,0,3.7-.9,6.3,8.4c1.1,3.9,1.2,6.8.5,8.7-.6,1.5-1.6,1.8-1.6,1.8l-38,10.4c.8,10.2-3.7,11.5-3.9,11.6l-93.9,25.8c0-.1-.2,0-.6,0ZM239.3,97c-.3,0-.5,0-.5,0l-93.9,25.8c-.1,0-6.7,2.1-1.6,20.5c5,18.4,11.8,16.8,11.9,16.8l93.9-25.8c0,0,4.3-1.4,3.5-11.2v-.2L291,112.3c0,0,3.1-1.1.7-9.8s-5.6-8-5.6-8l-38.4,10.6-.1-.2c-3.5-7.2-7.1-7.9-8.3-7.9Z" fill="#4aae34"/></g><g><g><path d="M224.9,410.3v-4.7l4.3-3.9c7.2-6.4,10.7-10.1,10.8-14c0-2.7-1.6-4.8-5.4-4.8-2.8,0-5.3,1.4-7,2.7l-2.2-5.5c2.5-1.9,6.3-3.4,10.8-3.4c7.5,0,11.6,4.4,11.6,10.3c0,5.5-4,9.9-8.8,14.2l-3,2.5v.1h12.4v6.3h-23.5Z"/></g></g><g><g><path d="M97,239.9v-23.9h6.3l5,8.8c1.4,2.5,2.8,5.5,3.9,8.2h.1c-.4-3.2-.5-6.4-.5-10v-7h5v23.9h-5.7l-5.1-9.2c-1.4-2.6-3-5.6-4.2-8.4h-.1c.1,3.2.2,6.5.2,10.4v7.2h-4.9Z"/></g><g><path d="M138.3,231.1c0,6.4-4.5,9.3-9.2,9.3-5.1,0-9-3.3-9-8.9s3.7-9.2,9.3-9.2c5.4-.1,8.9,3.5,8.9,8.8Zm-12.5.1c0,3,1.2,5.2,3.5,5.2c2.1,0,3.4-2.1,3.4-5.2c0-2.6-1-5.2-3.4-5.2-2.6,0-3.5,2.7-3.5,5.2Z"/></g><g><path d="M141.7,228.1c0-2.2-.1-4-.1-5.5h4.7l.2,2.4h.1c.7-1.1,2.5-2.8,5.4-2.8c3.5,0,6.2,2.3,6.2,7.5v10.3h-5.4v-9.6c0-2.2-.8-3.8-2.7-3.8-1.5,0-2.4,1-2.7,2-.1.3-.2.9-.2,1.3v10h-5.4v-11.8Z"/></g><g><path d="M175.7,217.6v5h3.9v4h-3.9v6.3c0,2.1.5,3.1,2.1,3.1.7,0,1.2-.1,1.6-.1v4.1c-.7.3-2,.5-3.5.5-1.7,0-3.2-.6-4-1.5-1-1-1.5-2.7-1.5-5.1v-7.1h-2.3v-4h2.3v-3.8l5.3-1.4Z"/></g><g><path d="M199.6,231.1c0,6.4-4.5,9.3-9.2,9.3-5.1,0-9-3.3-9-8.9s3.7-9.2,9.3-9.2c5.4-.1,8.9,3.5,8.9,8.8Zm-12.5.1c0,3,1.2,5.2,3.5,5.2c2.1,0,3.4-2.1,3.4-5.2c0-2.6-1-5.2-3.4-5.2-2.6,0-3.5,2.7-3.5,5.2Z"/></g><g><path d="M206.2,222.6l1.7,2.9c.5.9,1,1.8,1.4,2.6h.1c.5-.9.9-1.8,1.3-2.7l1.5-2.8h5.9l-5.7,8.3l5.8,9.1h-6.1l-1.7-3.1c-.5-.9-.9-1.7-1.3-2.6h-.1c-.4.9-.9,1.8-1.3,2.6l-1.6,3.1h-5.9l5.9-8.8-5.8-8.5h5.9Z"/></g><g><path d="M226.1,217.7c0,1.5-1.1,2.7-2.9,2.7-1.7,0-2.8-1.2-2.8-2.7c0-1.6,1.1-2.7,2.8-2.7c1.8,0,2.9,1.2,2.9,2.7Zm-5.6,22.2v-17.4h5.4v17.4h-5.4Z"/></g><g><path d="M243.3,239.5c-1,.4-2.8.8-4.8.8-5.6,0-9.2-3.4-9.2-8.9c0-5.1,3.5-9.2,9.9-9.2c1.4,0,3,.2,4.1.7l-.9,4c-.6-.3-1.6-.5-3-.5-2.8,0-4.7,2-4.7,4.9c0,3.2,2.1,4.9,4.8,4.9c1.3,0,2.3-.2,3.1-.5l.7,3.8Z"/></g><g><path d="M263.3,239.9l-.3-1.7h-.1c-1.1,1.4-2.9,2.1-5,2.1-3.5,0-5.6-2.6-5.6-5.3c0-4.5,4-6.7,10.2-6.6v-.2c0-.9-.5-2.2-3.2-2.2-1.8,0-3.7.6-4.8,1.3l-1-3.5c1.2-.7,3.6-1.5,6.7-1.5c5.8,0,7.6,3.4,7.6,7.5v6c0,1.7.1,3.3.2,4.2h-4.7Zm-.6-8.2c-2.8,0-5,.6-5,2.7c0,1.4.9,2.1,2.1,2.1c1.3,0,2.5-.9,2.8-2c.1-.3.1-.6.1-.9v-1.9Z"/></g><g><path d="M272.2,228.1c0-2.2-.1-4-.1-5.5h4.7l.2,2.4h.1c.7-1.1,2.5-2.8,5.4-2.8c3.5,0,6.2,2.3,6.2,7.5v10.3h-5.4v-9.6c0-2.2-.8-3.8-2.7-3.8-1.5,0-2.4,1-2.7,2-.1.3-.2.9-.2,1.3v10h-5.4v-11.8Z"/></g><g><path d="M309.8,214.7v20c0,2,.1,4,.1,5.2h-4.8l-.2-2.6h-.1c-1.1,2-3.2,2.9-5.4,2.9-4.1,0-7.4-3.5-7.4-8.9c0-5.9,3.6-9.2,7.8-9.2c2.1,0,3.8.7,4.6,2h.1v-9.4h5.3Zm-5.4,15.2c0-.3,0-.7-.1-1-.3-1.5-1.5-2.7-3.2-2.7-2.4,0-3.7,2.2-3.7,4.9c0,2.9,1.5,4.8,3.7,4.8c1.6,0,2.8-1.1,3.1-2.6.1-.4.1-.8.1-1.2v-2.2Z"/></g><g><path d="M321.3,228.1c0-2.2-.1-4-.1-5.5h4.7l.2,2.4h.1c.7-1.1,2.5-2.8,5.4-2.8c3.5,0,6.2,2.3,6.2,7.5v10.3h-5.4v-9.6c0-2.2-.8-3.8-2.7-3.8-1.5,0-2.4,1-2.7,2-.1.3-.2.9-.2,1.3v10h-5.4v-11.8Z"/></g><g><path d="M359.2,231.1c0,6.4-4.5,9.3-9.2,9.3-5.1,0-9-3.3-9-8.9s3.7-9.2,9.3-9.2c5.4-.1,8.9,3.5,8.9,8.8Zm-12.6.1c0,3,1.2,5.2,3.5,5.2c2.1,0,3.4-2.1,3.4-5.2c0-2.6-1-5.2-3.4-5.2-2.5,0-3.5,2.7-3.5,5.2Z"/></g><g><path d="M362.5,228.1c0-2.2-.1-4-.1-5.5h4.7l.2,2.4h.1c.7-1.1,2.5-2.8,5.4-2.8c3.5,0,6.2,2.3,6.2,7.5v10.3h-5.4v-9.6c0-2.2-.8-3.8-2.7-3.8-1.5,0-2.4,1-2.7,2-.1.3-.2.9-.2,1.3v10h-5.4v-11.8Z"/></g><g><path d="M131.3,282.5v-13.4h-2.3v-4h2.3v-.7c0-2.1.6-4.4,2.2-5.8c1.3-1.3,3.2-1.7,4.8-1.7c1.2,0,2.1.1,2.9.4l-.2,4.2c-.5-.1-1-.2-1.7-.2-1.8,0-2.5,1.4-2.5,3.1v.9h3.5v4h-3.4v13.4h-5.6Z"/></g><g><path d="M152.6,282.5l-.3-1.7h-.1c-1.1,1.4-2.9,2.1-5,2.1-3.5,0-5.6-2.6-5.6-5.3c0-4.5,4-6.7,10.2-6.6v-.2c0-.9-.5-2.2-3.2-2.2-1.8,0-3.7.6-4.8,1.3l-1-3.5c1.2-.7,3.6-1.5,6.7-1.5c5.8,0,7.6,3.4,7.6,7.5v6c0,1.7.1,3.3.2,4.2h-4.7Zm-.6-8.2c-2.8,0-5,.6-5,2.7c0,1.4.9,2.1,2.1,2.1c1.3,0,2.5-.9,2.8-2c.1-.3.1-.6.1-.9v-1.9Z"/></g><g><path d="M161.5,270.7c0-2.2-.1-4-.1-5.5h4.5l.2,2.3h.1c.7-1.1,2.3-2.7,5.3-2.7c2.2,0,4,1.1,4.8,2.9h.1c.6-.9,1.4-1.6,2.2-2.1c1-.6,2-.9,3.3-.9c3.3,0,5.9,2.3,5.9,7.5v10.2h-5.3v-9.4c0-2.5-.8-4-2.6-4-1.2,0-2.1.9-2.5,1.9-.1.4-.2,1-.2,1.4v10.2h-5.2v-9.7c0-2.2-.8-3.7-2.5-3.7-1.4,0-2.2,1.1-2.5,2-.2.4-.2.9-.2,1.3v10.1h-5.3v-11.8Z"/></g><g><path d="M201.9,282.5l-.3-1.7h-.1c-1.1,1.4-2.9,2.1-5,2.1-3.5,0-5.6-2.6-5.6-5.3c0-4.5,4-6.7,10.2-6.6v-.2c0-.9-.5-2.2-3.2-2.2-1.8,0-3.7.6-4.8,1.3l-1-3.5c1.2-.7,3.6-1.5,6.7-1.5c5.8,0,7.6,3.4,7.6,7.5v6c0,1.7.1,3.3.2,4.2h-4.7Zm-.7-8.2c-2.8,0-5,.6-5,2.7c0,1.4.9,2.1,2.1,2.1c1.3,0,2.5-.9,2.8-2c.1-.3.1-.6.1-.9v-1.9Z"/></g><g><path d="M210.6,282.5c.1-1.1.1-3.2.1-5.2v-20h5.4v9.9h.1c1-1.5,2.8-2.5,5.3-2.5c4.2,0,7.2,3.4,7.2,8.8c0,6.2-4,9.4-8,9.4-2,0-4-.7-5.2-2.8h-.1l-.2,2.4h-4.6Zm5.5-7.4c0,.4,0,.7.1,1c.4,1.5,1.6,2.6,3.2,2.6c2.3,0,3.7-1.8,3.7-4.9c0-2.7-1.2-4.8-3.7-4.8-1.5,0-2.8,1.1-3.2,2.7-.1.3-.1.6-.1,1v2.4Z"/></g><g><path d="M232,257.3h5.4v25.2h-5.4v-25.2Z"/></g><g><path d="M245.9,275.6c.2,2.2,2.4,3.3,4.9,3.3c1.8,0,3.3-.2,4.8-.7l.7,3.7c-1.8.7-3.9,1.1-6.3,1.1-5.9,0-9.3-3.4-9.3-8.8c0-4.4,2.7-9.3,8.8-9.3c5.6,0,7.7,4.4,7.7,8.7c0,.9-.1,1.7-.2,2.1h-11.1Zm6.3-3.7c0-1.3-.6-3.5-3.1-3.5-2.3,0-3.2,2.1-3.3,3.5h6.4Z"/></g><g><path d="M284.2,265.2c-.1,1.1-.1,2.6-.1,5.1v9.7c0,3.3-.7,6.1-2.6,7.8-1.9,1.6-4.5,2.1-7.1,2.1-2.3,0-4.7-.5-6.2-1.3l1.1-4.1c1.1.6,3,1.3,5,1.3c2.6,0,4.5-1.4,4.5-4.6v-1.1h-.1c-1,1.5-2.7,2.3-4.7,2.3-4.3,0-7.3-3.5-7.3-8.5c0-5.6,3.6-9.1,7.9-9.1c2.4,0,3.9,1,4.8,2.5h.1l.2-2.1h4.5Zm-5.5,7c0-.4,0-.7-.1-1-.4-1.4-1.4-2.4-2.9-2.4-2,0-3.6,1.8-3.6,4.9c0,2.6,1.3,4.6,3.6,4.6c1.4,0,2.5-.9,2.8-2.2.1-.4.2-1,.2-1.4v-2.5Z"/></g><g><path d="M298.3,282.5l-.3-1.7h-.1c-1.1,1.4-2.9,2.1-5,2.1-3.5,0-5.6-2.6-5.6-5.3c0-4.5,4-6.7,10.2-6.6v-.2c0-.9-.5-2.2-3.2-2.2-1.8,0-3.7.6-4.8,1.3l-1-3.5c1.2-.7,3.6-1.5,6.7-1.5c5.8,0,7.6,3.4,7.6,7.5v6c0,1.7.1,3.3.2,4.2h-4.7Zm-.7-8.2c-2.8,0-5,.6-5,2.7c0,1.4.9,2.1,2.1,2.1c1.3,0,2.5-.9,2.8-2c.1-.3.1-.6.1-.9v-1.9Z"/></g><g><path d="M307.1,277.8c1,.6,3.1,1.3,4.7,1.3s2.3-.6,2.3-1.5-.5-1.3-2.6-2c-3.6-1.2-5-3.2-4.9-5.2c0-3.2,2.8-5.7,7.1-5.7c2,0,3.8.5,4.9,1l-1,3.7c-.8-.4-2.3-1-3.8-1-1.3,0-2.1.5-2.1,1.4c0,.8.7,1.2,2.8,2c3.3,1.1,4.7,2.8,4.7,5.4c0,3.2-2.6,5.6-7.5,5.6-2.3,0-4.3-.5-5.6-1.2l1-3.8Z"/></g><g><path d="M326.7,275.6c.2,2.2,2.4,3.3,4.9,3.3c1.8,0,3.3-.2,4.8-.7l.7,3.7c-1.8.7-3.9,1.1-6.3,1.1-5.9,0-9.3-3.4-9.3-8.8c0-4.4,2.7-9.3,8.8-9.3c5.6,0,7.7,4.4,7.7,8.7c0,.9-.1,1.7-.2,2.1h-11.1Zm6.3-3.7c0-1.3-.6-3.5-3.1-3.5-2.3,0-3.2,2.1-3.3,3.5h6.4Z"/></g><g><path d="M341.2,277.8c1,.6,3.1,1.3,4.7,1.3s2.3-.6,2.3-1.5-.5-1.3-2.6-2c-3.6-1.2-5-3.2-4.9-5.2c0-3.2,2.8-5.7,7.1-5.7c2,0,3.8.5,4.9,1l-1,3.7c-.8-.4-2.3-1-3.8-1-1.3,0-2.1.5-2.1,1.4c0,.8.7,1.2,2.8,2c3.3,1.1,4.7,2.8,4.7,5.4c0,3.2-2.6,5.6-7.5,5.6-2.3,0-4.3-.5-5.6-1.2l1-3.8Z"/></g></g></g></g><g id="ersLTC7qxna231_tr" transform="translate(696,844.050018) rotate(-360)"><g id="ersLTC7qxna231_ts" transform="scale(1,1)"><g transform="translate(-696,-844.050018)"><circle r="88" transform="translate(696 840.7)" fill="none" stroke="#e92719" stroke-width="2" stroke-miterlimit="10"/><g><polygon points="604.8,843.4 632.2,845.4 604.8,847.4" fill="#e92719"/></g><g><polygon points="632,779.1 650,800 629.2,781.9" fill="#e92719"/></g><g><polygon points="696.8,752.9 694.8,780.4 692.8,752.9" fill="#e92719"/></g><g><polygon points="761.1,780.2 740.2,798.2 758.2,777.4" fill="#e92719"/></g><g><polygon points="787.2,844.9 759.7,842.9 787.2,840.9" fill="#e92719"/></g><g><polygon points="760,909.2 741.9,888.4 762.8,906.4" fill="#e92719"/></g><g><polygon points="695.2,935.4 697.2,907.9 699.2,935.4" fill="#e92719"/></g><g><polygon points="630.9,908.1 651.8,890.1 633.8,911" fill="#e92719"/></g></g></g></g></g></g><g id="ersLTC7qxna249_ts" transform="translate(696,844.050018) scale(0,0)"><g id="ersLTC7qxna249" transform="translate(-696,-844.050018)" opacity="0"><g><rect width="67.2" height="67.2" rx="0" ry="0" transform="matrix(.7071 0.7071-.7071 0.7071 696.612397 810.618819)" opacity="0.2"/><rect width="67.2" height="67.2" rx="0" ry="0" transform="matrix(.7071 0.7071-.7071 0.7071 696.014173 798.182523)" fill="#e92719" stroke="#000" stroke-width="1.3167" stroke-miterlimit="10"/><g><rect width="50.3" height="50.3" rx="0" ry="0" transform="matrix(.7071 0.7071-.7071 0.7071 696.012164 813.302227)" opacity="0.4"/><rect width="50.3" height="50.3" rx="0" ry="0" transform="matrix(.7071 0.7071-.7071 0.7071 696.050533 808.617858)" fill="#e92719" stroke="#000" stroke-width="1.3167" stroke-miterlimit="10"/><g><path d="M692.6,860.1c0-2,1.4-3.5,3.4-3.5s3.4,1.5,3.4,3.5-1.3,3.5-3.4,3.5c-2,0-3.4-1.5-3.4-3.5Zm1.5-8.1l-.8-27.3h5.5L698,852h-3.9Z"/></g></g></g><g transform="matrix(.250125 0 0 0.250125 503.071185 784.695917)"><g><rect width="304.8" height="304.8" rx="0" ry="0" transform="matrix(.7071-.7071 0.7071 0.7071 552.173328 233.414625)" fill="#cd103c"/><path d="M767.7,452.5l-219-219.1l219.1-219l219.1,219L767.7,452.5Zm-212-219.1L767.8,445.5L979.9,233.4L767.7,21.3l-212,212.1Z"/></g><g><rect width="256.6" height="256.6" rx="0" ry="0" transform="matrix(.7071-.7071 0.7071 0.7071 586.255534 233.414625)" fill="#cd103c"/><path d="M767.7,416.5L584.6,233.4L767.7,50.3L950.8,233.4L767.7,416.5ZM587.9,233.4L767.7,413.2L947.5,233.4L767.7,53.6L587.9,233.4Z" fill="#fff"/></g><g><path d="M668.4,253.9h-6.5v8.4h4.4v4.9h-4.4v14h-4.7v-32.2c0,0,.5,0,11.2,0v4.9Z" fill="#eaf8f5"/><path d="M670.3,249.1h4.7v27.8h6.3v4.4h-11v-32.2Z" fill="#eaf8f5"/><path d="M682.4,281.2l4.9-32.2h5.8l4.9,32.2h-4.6l-.9-6.6h-4.6l-.9,6.6h-4.6Zm8-21.7l-.1-.8h-.3l-.1.8-1.4,10.2h3.2l-1.3-10.2Z" fill="#eaf8f5"/><path d="M707.9,281.2l-3-20.2-.2-1.4h-.3v1.4v20.2h-4.4v-32.2h5.8l2.8,14.7.2,1.7h.1l.2-1.7l2.8-14.7h5.8v32.2h-4.4v-20.2-1.4h-.3l-.2,1.4-3,20.2h-1.9Z" fill="#eaf8f5"/><path d="M729.1,281.2l-3-20.2-.2-1.4h-.3v1.4v20.2h-4.4v-32.2h5.8l2.8,14.7.2,1.7h.1l.2-1.7l2.8-14.7h5.8v32.2h-4.4v-20.2-1.4h-.3L734,261l-3,20.2h-1.9Z" fill="#eaf8f5"/><path d="M741.1,281.2L746,249h5.8l4.9,32.2h-4.7l-.9-6.6h-4.6l-.9,6.6h-4.5Zm8-21.7l-.1-.8h-.3l-.1.8-1.4,10.2h3.2l-1.3-10.2Z" fill="#eaf8f5"/><path d="M758.8,281.2v-32.2c0,0,2.4,0,4.2,0c5.6,0,8.6,2.1,8.6,8.5c0,3-.7,4.7-2.9,6.6c0,0,3.3,1.5,3.3,7.9c0,4.7-1.7,8.9-7.3,9.1h-5.9Zm4.7-27.4v8.6c.9,0,3.5.1,3.5-4.3c0-4.5-2.6-4.3-3.5-4.3Zm0,12.9v9.9c.9,0,3.5.4,3.5-4.9c0-5.4-2.6-5-3.5-5Z" fill="#eaf8f5"/><path d="M774.7,249.1h4.7v27.8h6.3v4.4h-11v-32.2Z" fill="#eaf8f5"/><path d="M787.7,249.1h10.8v4.9h-6.1v8.4h4.4v5.2h-4.4v8.8h6.1v4.9h-10.8v-32.2Z" fill="#eaf8f5"/><path d="M807.8,249.1h4.7v27.8h6.3v4.4h-11v-32.2Z" fill="#eaf8f5"/><path d="M820.8,249.1h4.7v32.2h-4.7v-32.2Z" fill="#eaf8f5"/><path d="M840.3,278.5c.4.5,1,1,1.9,1.1v4c-2.7,0-4.1-1.1-4.9-2.5-.7.2-1.4.4-2.4.4-6.3,0-6.3-7-6.3-7v-18.9c0,0,0-7,6.3-7s6.3,7,6.3,7v18.9c.1.1.1,2.1-.9,4ZM835,253.3c-1.7,0-1.6,2.4-1.6,2.4v18.9c0,0-.1,2.4,1.6,2.4s1.6-2.4,1.6-2.4v-18.9c0,0,0-2.4-1.6-2.4Z" fill="#eaf8f5"/><path d="M857.1,249.1v25.6c0,0,0,7-6.3,7s-6.3-7-6.3-7v-25.6h4.7v25.6c0,0-.1,2.4,1.6,2.4s1.6-2.4,1.6-2.4v-25.6h4.7Z" fill="#eaf8f5"/><path d="M860.6,249.1h4.7v32.2h-4.7v-32.2Z" fill="#eaf8f5"/><path d="M872.5,281.2h-3.7v-32.2h3.7c8.8,0,9.4,3.5,9.4,16.1.1,12.6-.6,16.1-9.4,16.1Zm1-4.7c3.3,0,3.5-.8,3.5-11.4c0-10.5-.2-11.3-3.5-11.3v22.7Z" fill="#eaf8f5"/></g><g><g><path d="M761,219.3c0,0-30.5-5.1-36.2-30.7s-9.7-32.4-9.7-32.4s12.6,2.4,15,9.7c0,0,8.9-10.5,2.8-34.8c0,0,10.5,2.8,13.4,14.6c0,0,9.3-27.6.4-42.9c0,0,15.4,8.5,18.2,18.6c0,0,4.5-7.7,0-18.6s3.6-29.6,3.6-29.6.4,15.8,6.1,25.1s14.2,24.3,6.9,42.1c0,0,10.9-7.7,13.8-26.3c0,0,6.9,22.3,2.4,45c0,0,13.8-2.4,17.8-23.5c0,0,6.5,15.8-5.3,40.5c0,0,8.5-2.8,13.4-11.7c0,0-3.6,45.1-44.6,55c0,0,18.8-12.4,15.8-36.9c0,0-8.9,12.8-16,12.2c0,0,7.7-9.7,6.5-18.4c0,0-8.7,9.3-12,8.5c0,0-1.2-4.1,2-9.9c3.2-5.9,5.7-16.4-.2-22.7s-5.9-12.8-5.9-14.6c0,0-2.2,15.8,1.2,22.5s0,12.4-1.2,14.2-10.3-7.1-9.9-16.6c0,0-6.3,19.9.8,30.4c0,0-11.1-7.1-13-17c0,0-2.8,12.2,2.6,20.3c0,0-8.1,2.6-12.2-4.9.3-.3.5,23.9,23.5,32.8Z" fill="#fff"/></g><g><rect width="88.1" height="9.3" rx="0" ry="0" transform="translate(725.4 224)" fill="#fff"/></g></g><g><path d="M758.1,377.7c1.5.8,4.8,2.2,8.2,2.2c4.3,0,6.4-2.1,6.4-4.7c0-3.5-3.5-5-7.1-5h-3.4v-5.9h3.2c2.8-.1,6.3-1.1,6.3-4.1c0-2.1-1.7-3.7-5.2-3.7-2.9,0-5.9,1.2-7.4,2.1l-1.7-6c2.1-1.4,6.3-2.7,10.9-2.7c7.5,0,11.7,3.9,11.7,8.8c0,3.7-2.1,6.7-6.4,8.2v.1c4.2.8,7.6,4,7.6,8.5c0,6.2-5.5,10.8-14.4,10.8-4.5,0-8.4-1.2-10.4-2.5l1.7-6.1Z" fill="#e8f6f1"/></g></g><g id="ersLTC7qxna288_tr" transform="translate(696,844.050018) rotate(-360)"><g id="ersLTC7qxna288_ts" transform="scale(1,1)"><g transform="translate(-696,-844.050018)"><circle r="88" transform="translate(696 840.7)" fill="none" stroke="#e92719" stroke-width="2" stroke-miterlimit="10"/><g><polygon points="604.8,843.4 632.2,845.4 604.8,847.4" fill="#e92719"/></g><g><polygon points="632,779.1 650,800 629.2,781.9" fill="#e92719"/></g><g><polygon points="696.8,752.9 694.8,780.4 692.8,752.9" fill="#e92719"/></g><g><polygon points="761.1,780.2 740.2,798.2 758.2,777.4" fill="#e92719"/></g><g><polygon points="787.2,844.9 759.7,842.9 787.2,840.9" fill="#e92719"/></g><g><polygon points="760,909.2 741.9,888.4 762.8,906.4" fill="#e92719"/></g><g><polygon points="695.2,935.4 697.2,907.9 699.2,935.4" fill="#e92719"/></g><g><polygon points="630.9,908.1 651.8,890.1 633.8,911" fill="#e92719"/></g></g></g></g><g transform="matrix(.273925 0 0 0.273925 348.849549 778.398048)"><rect width="304.8" height="304.8" rx="0" ry="0" transform="matrix(.7071-.7071 0.7071 0.7071 1055.878652 233.439501)" fill="#fff" stroke="#000" stroke-width="4.9447" stroke-miterlimit="10"/><rect width="256.6" height="256.6" rx="0" ry="0" transform="matrix(.7071-.7071 0.7071 0.7071 1090.031568 233.368791)" fill="#fff" stroke="#001000" stroke-width="4.9447" stroke-miterlimit="10"/><g><path d="M1263,372.4c1,.1,1.9.1,3.6,0c2.5-.2,5-.9,6.9-2.2c2.3-1.6,3.8-3.8,4.4-6.5l-.2-.1c-1.6,1.6-3.8,2.5-7,2.5-6,0-11-4.2-11-11c0-6.9,5.5-12.7,13.3-12.7c9,0,13.3,6.9,13.3,15.1c0,7.3-2.3,12.7-6.2,16.2-3.4,3-8,4.7-13.4,4.9-1.4.1-2.8.1-3.7,0v-6.2Zm4.9-17.6c0,3,1.6,5.6,5,5.6c2.2,0,3.8-1.1,4.5-2.3.3-.5.4-1,.4-2.1c0-3.7-1.4-7.4-5.1-7.4-2.7,0-4.8,2.5-4.8,6.2Z" fill="#000400"/><path d="M1258.1,385.1v-2.7h30v2.7h-30Z" fill="#000400"/></g><polygon points="1091.9,197.4 1055.9,233.4 1091.9,233.4"/><polygon points="1131.7,157.6 1131.7,233.4 1171.5,233.4 1171.5,117.8"/><polygon points="1211.3,78 1211.3,233.4 1251.1,233.4 1251.1,38.2"/><polygon points="1330.6,77 1290.9,37.3 1290.9,233.4 1330.6,233.4"/><polygon points="1410.2,156.6 1370.4,116.8 1370.4,233.4 1410.2,233.4"/><polygon points="1450,233.4 1487,233.4 1450,196.4"/></g></g></g></g></svg>